M48
; DRILL file {KiCad 7.0.5} date Wed Mar 27 11:10:41 2024
; FORMAT={-:-/ absolute / metric / decimal}
; #@! TF.CreationDate,2024-03-27T11:10:41+04:00
; #@! TF.GenerationSoftware,Kicad,Pcbnew,7.0.5
; #@! TF.FileFunction,Plated,1,2,PTH
FMAT,2
METRIC
; #@! TA.AperFunction,Plated,PTH,ComponentDrill
T1C0.800
; #@! TA.AperFunction,Plated,PTH,ComponentDrill
T2C1.000
; #@! TA.AperFunction,Plated,PTH,ComponentDrill
T3C1.100
; #@! TA.AperFunction,Plated,PTH,ComponentDrill
T4C1.200
; #@! TA.AperFunction,Plated,PTH,ComponentDrill
T5C1.520
; #@! TA.AperFunction,Plated,PTH,ComponentDrill
T6C2.000
%
G90
G05
T1
X76.2Y114.3
X76.2Y127.0
X76.2Y146.05
X76.2Y158.75
X93.98Y158.75
X93.98Y161.29
X93.98Y163.83
X93.98Y166.37
X95.25Y152.4
X101.6Y95.25
X101.6Y107.95
X101.6Y158.75
X101.6Y161.29
X101.6Y163.83
X101.6Y166.37
X107.95Y152.4
X114.3Y139.7
X114.3Y152.4
T2
X63.5Y165.1
X71.0Y165.1
X78.9Y165.1
X80.01Y104.14
X80.01Y106.68
X80.01Y109.22
X80.01Y111.76
X80.01Y114.3
X80.01Y116.84
X80.01Y119.38
X80.01Y121.92
X80.01Y124.46
X80.01Y127.0
X80.01Y129.54
X80.01Y132.08
X80.01Y134.62
X80.01Y137.16
X80.01Y139.7
X88.9Y165.1
X95.25Y104.14
X95.25Y106.68
X95.25Y109.22
X95.25Y111.76
X95.25Y114.3
X95.25Y116.84
X95.25Y119.38
X95.25Y121.92
X95.25Y124.46
X95.25Y127.0
X95.25Y129.54
X95.25Y132.08
X95.25Y134.62
X95.25Y137.16
X95.25Y139.7
X101.6Y133.35
X101.6Y143.35
X107.95Y120.65
X107.95Y128.25
X116.84Y106.75
X119.38Y106.75
X121.92Y106.75
X124.46Y106.75
T3
X114.3Y160.02
X114.3Y162.56
X114.3Y165.1
T4
X76.2Y132.08
X76.2Y139.7
X77.25Y88.9
X82.55Y88.9
X95.25Y88.9
X100.55Y88.9
T5
X63.5Y146.05
X63.5Y151.13
X83.82Y177.8
X88.9Y177.8
T6
X109.65Y84.25
X109.65Y106.25
X131.65Y84.25
X131.65Y106.25
T0
M30
